# xmcd CD database file
#
# Track frame offsets:
#	150
#	16629
#	26150
#	37106
#	47497
#	58777
#	73504
#	87774
#	96841
#	108675
#	117672
#	127290
#	136325
#	152762
#	173360
#	183696
#	197418
#	207286
#	217751
#	229833
#	241225
#	254013
#	270910
#	280601
#
# Disc length: 3961 seconds
#
# Revision: 2
# Processed by: cddbd v1.5.2PL0 Copyright (c) Steve Scherf et al.
# Submitted via: CDex 1.70beta2
#
DISCID=550f7718
DTITLE=Andrew Bond - Reisefieber
DYEAR=2006
DGENRE=Vocal
TTITLE0=Schiff ahoi!
TTITLE1=Wältreis
TTITLE2=Kamel riite
TTITLE3=Miis Trotti
TTITLE4=Trampedalohupobil
TTITLE5=10 Töff
TTITLE6=Ruederräne
TTITLE7=Bääre uf de Fääre
TTITLE8=Heissluftballon
TTITLE9=Ich flüüge mit em Bus
TTITLE10=Im Bus
TTITLE11=Poschtauto
TTITLE12=Tramnummere
TTITLE13=Ufo und U-Boot
TTITLE14=Zug um Zug
TTITLE15=Spielwage
TTITLE16=Nachtzug
TTITLE17=Wandere
TTITLE18=Retigshelifant
TTITLE19=Ufo und U-Baan
TTITLE20=En rote Traktor
TTITLE21=Oise Pilot
TTITLE22=Mondreis
TTITLE23=Reisefieber
EXTD=YEAR: 2006
EXTT0=
EXTT1=
EXTT2=
EXTT3=
EXTT4=
EXTT5=
EXTT6=
EXTT7=
EXTT8=
EXTT9=
EXTT10=
EXTT11=
EXTT12=
EXTT13=
EXTT14=
EXTT15=
EXTT16=
EXTT17=
EXTT18=
EXTT19=
EXTT20=
EXTT21=
EXTT22=
EXTT23=
PLAYORDER=
